<?xml version="1.0" standalone="no"?>
<!DOCTYPE svg PUBLIC "-//W3C//DTD SVG 20010904//EN"
 "http://www.w3.org/TR/2001/REC-SVG-20010904/DTD/svg10.dtd">
<svg version="1.0" xmlns="http://www.w3.org/2000/svg"
 width="2134.000000pt" height="2134.000000pt" viewBox="0 0 2134.000000 2134.000000"
 preserveAspectRatio="xMidYMid meet">
<metadata>
Created by potrace 1.14, written by Peter Selinger 2001-2017
</metadata>
<g transform="translate(0.000000,2134.000000) scale(0.100000,-0.100000)"
fill="#000000" stroke="none">
<path d="M0 10670 l0 -10670 10670 0 10670 0 0 10670 0 10670 -9302 0 c-8905
0 -9300 -1 -9285 -18 9 -10 31 -91 52 -197 91 -450 283 -1091 388 -1288 31
-59 78 -97 140 -111 15 -4 379 -22 810 -40 521 -23 792 -38 809 -47 37 -16 53
-58 39 -102 -16 -48 -41 -67 -169 -131 -210 -105 -404 -231 -572 -370 -100
-83 -326 -317 -395 -407 -93 -123 -119 -187 -119 -294 -1 -76 4 -94 94 -347
52 -147 97 -268 100 -268 3 1 46 62 97 138 482 717 1173 1263 2085 1646 269
113 745 301 933 369 754 271 1440 402 2420 459 395 23 1411 13 1873 -18 160
-11 203 -3 -828 -165 -990 -155 -1582 -258 -1855 -321 l-93 -21 116 -58 c212
-104 395 -242 583 -437 299 -310 503 -669 689 -1210 l66 -192 85 142 c284 478
662 895 1109 1227 347 257 774 498 1140 644 258 103 341 127 237 68 -82 -47
-323 -206 -432 -284 -262 -190 -471 -370 -696 -602 -529 -542 -858 -1055
-1127 -1755 -174 -455 -272 -1021 -272 -1570 1 -235 12 -355 39 -408 61 -119
212 -167 329 -104 28 15 100 62 159 106 119 86 245 163 461 281 l144 78 37
-37 38 -37 -54 -125 c-129 -301 -215 -628 -254 -969 -17 -143 -17 -530 0 -670
12 -101 55 -359 66 -396 3 -8 35 -37 72 -65 149 -108 339 -323 457 -513 195
-315 313 -697 333 -1071 l6 -125 55 -85 c30 -46 60 -89 67 -95 69 -58 593
-431 620 -441 19 -8 372 174 532 275 543 340 909 745 1057 1169 59 170 79 324
111 842 20 333 32 465 56 635 60 420 187 732 416 1015 62 77 286 300 301 300
5 0 37 -91 72 -202 294 -946 547 -1485 908 -1938 172 -215 343 -371 747 -681
291 -223 392 -306 514 -424 353 -340 599 -787 823 -1495 154 -484 218 -754
218 -908 -1 -403 -301 -646 -910 -736 -663 -98 -1398 103 -1980 542 -130 98
-337 295 -444 422 -151 180 -283 396 -371 605 l-53 127 -30 -63 c-175 -370
-82 -846 237 -1216 231 -269 648 -490 1181 -627 74 -19 293 -66 485 -106 608
-123 880 -199 1140 -316 228 -103 406 -226 571 -395 240 -247 363 -507 381
-804 l6 -110 -34 26 c-213 163 -449 239 -739 239 -354 -1 -693 -113 -1040
-345 -223 -149 -370 -273 -780 -660 -383 -361 -460 -428 -652 -568 -297 -216
-585 -352 -872 -409 -157 -32 -415 -31 -566 1 -422 90 -836 346 -1206 748 -90
97 -104 109 -108 90 -7 -33 -437 -4946 -436 -4988 0 -51 28 -83 71 -83 25 0
62 19 134 66 222 145 529 304 780 403 370 147 780 249 1215 302 207 25 802 26
1010 0 179 -22 352 -51 490 -83 205 -48 210 -51 210 -114 0 -30 -6 -43 -22
-54 -13 -8 -495 -142 -1073 -296 -742 -199 -1071 -292 -1121 -316 -119 -56
-214 -158 -214 -229 0 -36 -23 -86 -51 -112 -44 -40 -397 -162 -659 -227 -571
-141 -1192 -176 -1785 -100 -337 43 -595 108 -1095 274 -623 208 -729 228
-1240 240 -366 9 -425 16 -559 66 -281 106 -463 372 -551 803 -30 148 -47 301
-85 761 -63 769 -83 1142 -92 1705 -22 1505 179 2665 641 3700 290 647 719
1268 1170 1690 l110 103 -74 12 c-105 18 -234 9 -289 -19 -105 -55 -177 -170
-261 -421 -114 -342 -249 -566 -485 -809 -187 -192 -368 -323 -610 -442 -324
-158 -605 -223 -965 -223 -225 0 -358 15 -560 64 -63 16 -116 27 -118 25 -2
-2 25 -45 59 -97 170 -252 360 -607 458 -856 79 -201 104 -283 192 -624 10
-40 34 -51 43 -20 2 9 21 100 41 202 47 242 45 234 62 185 35 -102 143 -563
198 -850 128 -670 193 -1253 202 -1807 l6 -336 -26 -26 c-46 -46 -133 -28
-151 31 -3 10 -37 140 -76 290 -53 205 -95 337 -170 536 -54 145 -151 414
-214 598 -305 874 -340 969 -450 1206 -131 280 -303 580 -524 915 -202 303
-364 513 -772 998 -401 477 -707 863 -990 1250 -169 231 -509 742 -641 960
-590 982 -969 1930 -1113 2785 -65 381 -80 597 -73 1015 6 353 11 401 82 868
48 312 70 414 110 515 14 34 39 109 56 167 26 84 39 111 66 137 53 51 151 58
210 15 15 -11 63 -76 107 -144 149 -236 410 -563 444 -556 15 3 18 27 24 193
16 407 52 691 129 1005 47 194 158 531 223 680 l46 105 -143 140 c-174 172
-270 244 -474 359 -87 49 -214 120 -283 159 -152 85 -246 148 -335 223 -64 54
-179 183 -171 191 2 3 260 -133 572 -300 643 -344 670 -357 716 -357 141 0
123 202 -41 474 -143 238 -171 311 -171 446 0 58 6 87 24 125 50 107 94 141
392 303 336 183 353 193 399 243 76 81 71 166 -14 251 -94 94 -205 100 -444
21 -137 -46 -146 -47 -262 -48 -107 0 -125 3 -170 24 -70 34 -163 132 -202
212 -45 94 -69 197 -93 409 -12 102 -32 227 -45 278 -23 88 -79 212 -96 212
-15 0 -156 -224 -177 -280 -11 -31 -30 -114 -42 -185 -12 -72 -29 -143 -39
-160 -55 -96 -249 -98 -294 -2 -9 19 -17 45 -17 56 0 23 422 1317 440 1351 11
20 1 20 -1335 20 l-1345 0 0 -10670z m18018 9696 c6 -14 27 -105 47 -203 68
-334 169 -697 286 -1024 90 -254 121 -308 193 -339 58 -26 74 -27 876 -60 399
-17 743 -33 764 -38 80 -15 99 -99 36 -158 -16 -15 -96 -62 -177 -104 -331
-170 -608 -386 -835 -648 -160 -186 -208 -278 -208 -400 0 -98 -26 -16 327
-1022 l139 -395 -43 -3 c-96 -7 -263 63 -395 165 -35 26 -132 115 -218 198
-85 83 -177 169 -205 191 -81 67 -239 166 -405 255 -365 194 -528 307 -647
450 -35 41 -59 75 -54 77 4 1 215 -108 467 -244 252 -136 530 -285 617 -332
179 -95 225 -108 269 -73 76 61 34 236 -115 476 -120 195 -161 302 -161 420 0
65 4 90 25 135 54 116 89 142 451 337 285 153 326 178 365 230 23 30 28 46 28
94 0 48 -5 65 -30 100 -17 24 -53 57 -80 74 -47 29 -53 30 -159 29 -105 -1
-119 -4 -256 -50 -138 -46 -151 -48 -255 -49 -101 0 -114 2 -162 27 -100 53
-189 165 -234 295 -22 63 -28 104 -58 358 -11 94 -29 205 -40 248 -20 76 -86
217 -101 217 -4 0 -43 -52 -85 -115 -88 -130 -115 -203 -143 -380 -10 -63 -26
-125 -36 -140 -38 -57 -160 -83 -232 -49 -41 20 -64 59 -64 110 0 31 405 1295
432 1347 14 27 62 22 76 -7z m-15420 -693 c95 -5 112 -9 112 -23 0 -34 -81
-91 -149 -104 -19 -3 -297 -24 -618 -46 -606 -41 -639 -46 -663 -90 -36 -68
34 -150 216 -252 300 -167 337 -192 419 -273 159 -158 197 -313 126 -516 -10
-30 -43 -110 -73 -179 -83 -189 -144 -384 -168 -534 -13 -80 -7 -106 23 -106
12 0 97 58 193 131 95 72 190 139 210 150 41 21 107 25 148 9 32 -12 66 -65
66 -104 0 -48 -39 -115 -90 -155 -26 -20 -250 -178 -498 -350 -314 -217 -461
-314 -486 -318 -30 -5 -40 -1 -66 25 -58 59 -58 62 204 747 129 337 240 639
246 672 10 51 10 69 -4 116 -24 84 -82 140 -289 279 -348 233 -630 438 -906
662 -156 125 -181 153 -181 204 0 29 5 35 38 49 58 24 201 12 332 -27 150 -45
243 -49 445 -16 350 55 522 66 960 60 187 -2 391 -7 453 -11z m15022 -933
c301 -13 350 -19 350 -37 0 -29 -65 -81 -121 -97 -36 -11 -248 -29 -647 -56
-607 -41 -640 -45 -656 -85 -12 -32 -6 -73 17 -106 28 -42 119 -103 310 -208
190 -104 227 -129 313 -216 97 -98 146 -194 152 -303 6 -102 -11 -166 -98
-367 -136 -318 -213 -600 -176 -651 19 -26 33 -18 223 128 89 69 182 135 207
146 80 38 160 22 191 -38 32 -62 13 -129 -58 -197 -23 -22 -251 -185 -506
-362 -408 -282 -468 -321 -502 -321 -30 0 -43 6 -64 32 -47 56 -38 91 142 563
304 796 306 803 311 881 8 131 -41 191 -288 355 -390 258 -893 633 -1042 777
-41 39 -48 52 -48 84 0 50 28 67 117 74 57 5 90 0 208 -31 184 -49 282 -54
470 -27 442 65 764 82 1195 62z m-2583 -592 c5 -7 20 -62 32 -123 39 -196 138
-522 186 -615 8 -16 25 -35 38 -41 14 -8 134 -17 327 -26 439 -19 511 -25 523
-44 24 -38 1 -65 -95 -114 -127 -66 -189 -106 -281 -184 -161 -135 -255 -272
-244 -355 3 -22 57 -186 120 -363 l114 -323 -32 0 c-81 0 -160 49 -316 196
-104 98 -134 120 -295 211 -187 107 -276 170 -313 222 -12 17 -20 31 -18 31 3
0 118 -60 255 -134 352 -190 371 -199 398 -192 56 14 41 104 -40 241 -79 135
-94 187 -76 256 16 59 58 96 187 164 237 126 259 147 229 218 -29 71 -113 85
-251 42 -221 -69 -323 14 -355 290 -18 155 -46 251 -72 243 -24 -8 -86 -129
-97 -190 -6 -35 -14 -75 -17 -91 -10 -49 -95 -74 -142 -41 -15 10 -22 25 -22
47 0 25 199 650 217 680 7 11 30 8 40 -5z m-109 -815 c87 -6 98 -15 62 -48
-18 -16 -63 -22 -341 -41 -209 -14 -324 -26 -334 -34 -45 -37 -1 -87 147 -166
167 -90 233 -169 232 -279 -1 -48 -10 -81 -47 -168 -67 -154 -108 -327 -79
-327 5 0 53 34 108 75 78 59 106 75 133 75 70 0 92 -56 44 -110 -16 -17 -131
-102 -258 -190 -244 -170 -276 -184 -295 -135 -12 31 -7 46 123 386 58 151
109 287 112 301 10 38 -10 89 -48 125 -17 17 -81 63 -142 104 -136 90 -270
188 -398 292 -85 68 -98 83 -95 105 3 25 7 27 57 30 32 2 89 -6 140 -18 l87
-22 169 25 c177 26 438 35 623 20z m2141 -2220 c59 -348 75 -572 68 -967 -3
-188 -11 -364 -21 -446 -16 -136 -65 -442 -71 -449 -4 -4 -553 178 -667 221
-62 24 -89 42 -147 97 -82 79 -104 122 -103 206 1 67 32 234 64 339 104 356
394 762 758 1064 41 34 80 62 86 62 6 0 20 -54 33 -127z m1976 -6052 c22 -10
70 -41 106 -68 36 -28 99 -72 140 -98 82 -52 144 -107 163 -145 36 -68 23
-160 -33 -237 l-29 -40 34 -68 c73 -151 90 -345 45 -515 -28 -107 -104 -265
-169 -350 -62 -82 -189 -203 -267 -255 -57 -38 -198 -105 -221 -105 -7 0 -14
38 -18 103 -19 297 -94 526 -233 712 -100 135 -216 227 -383 307 -58 28 -107
52 -109 54 -2 1 11 27 28 57 56 98 183 199 303 240 14 5 15 12 7 39 -14 50
-11 144 7 186 42 103 157 162 312 162 31 0 86 9 122 19 83 25 144 25 195 2z
m-4049 -4051 c51 -25 88 -77 117 -162 20 -58 22 -84 22 -303 0 -257 -7 -317
-66 -629 -134 -705 -459 -1622 -643 -1811 l-41 -42 -100 -6 c-55 -4 -138 -14
-185 -23 -47 -9 -111 -18 -142 -21 -57 -5 -59 -5 -98 35 -64 63 -59 94 44 300
167 335 310 676 436 1047 82 241 82 243 155 630 30 160 72 361 94 446 116 454
240 619 407 539z"/>
<path d="M18673 8703 c-24 -2 -43 -7 -43 -11 0 -6 163 -36 535 -99 47 -8 -133
70 -203 88 -79 20 -213 30 -289 22z"/>
<path d="M6680 18404 c-501 -40 -951 -239 -1405 -623 -366 -310 -546 -607
-546 -900 0 -115 18 -197 66 -290 112 -217 321 -351 550 -351 269 0 488 178
555 451 17 68 23 137 30 364 11 326 26 421 89 552 98 204 276 293 468 235 209
-64 372 -248 471 -533 41 -115 417 -1488 448 -1636 34 -157 36 -351 6 -464
-54 -201 -162 -321 -327 -364 -200 -52 -444 42 -554 213 -40 62 -74 163 -101
297 -51 253 -122 380 -246 441 -47 23 -63 26 -116 21 -77 -7 -205 -68 -419
-199 -412 -254 -524 -314 -685 -367 -290 -97 -531 -91 -756 20 -26 12 -49 21
-52 18 -7 -8 -26 -310 -33 -511 l-6 -198 39 0 c142 0 824 -138 914 -185 48
-25 108 -102 130 -169 48 -146 46 -311 -9 -638 -38 -224 -46 -332 -31 -437 28
-206 135 -341 323 -409 64 -24 87 -26 207 -26 127 0 141 2 234 34 168 57 335
170 511 346 164 163 254 277 696 874 350 473 651 755 979 920 202 101 369 141
595 142 234 0 431 -43 615 -135 l105 -52 -3 366 c-2 201 1 430 7 509 6 79 9
145 8 147 -2 1 -53 -20 -115 -47 -235 -105 -387 -143 -572 -143 -153 1 -241
22 -373 90 -163 84 -280 224 -328 393 -7 25 -13 98 -13 165 0 141 10 191 99
491 76 253 95 339 102 464 14 238 -85 460 -297 670 -172 170 -362 286 -602
364 -197 65 -481 104 -658 90z"/>
<path d="M10033 13658 c-102 -243 -131 -336 -185 -587 -24 -110 -45 -201 -48
-201 -13 0 -106 331 -165 590 -20 85 -38 162 -41 170 -3 9 -14 -7 -29 -41 -84
-208 -284 -538 -445 -739 -102 -126 -272 -298 -359 -363 -260 -195 -560 -277
-716 -196 -94 48 -149 156 -149 294 0 97 23 165 115 348 105 208 131 287 131
394 0 45 -3 86 -7 92 -16 27 -245 0 -374 -44 -238 -81 -467 -238 -706 -486
-61 -63 -211 -235 -335 -384 -388 -466 -615 -668 -819 -729 -402 -119 -1131
211 -1876 850 -181 156 -431 403 -544 539 -45 55 -116 150 -158 210 l-75 110
7 -95 c41 -594 229 -1272 558 -2011 l25 -57 218 -5 c246 -5 120 16 1094 -186
614 -127 931 -182 1287 -221 955 -106 1768 11 2403 346 455 240 789 574 1005
1004 147 293 223 574 250 927 18 232 37 309 92 381 24 32 24 33 9 105 -38 182
-36 177 -60 177 -19 0 -32 -25 -103 -192z"/>
<path d="M10741 12450 c-213 -45 -421 -187 -574 -392 -93 -125 -314 -538 -414
-773 -60 -143 -115 -310 -138 -420 -23 -108 -23 -264 -2 -337 32 -106 116
-189 234 -230 58 -20 87 -23 198 -23 120 1 137 3 228 34 368 126 721 483 885
893 130 328 158 701 71 956 -44 129 -144 241 -249 278 -55 19 -179 26 -239 14z"/>
<path d="M16021 11534 c-163 -57 -272 -221 -273 -411 -1 -176 103 -265 431
-373 151 -50 230 -63 287 -49 159 40 236 290 159 509 -52 148 -183 274 -333
320 -78 24 -207 26 -271 4z m316 -135 c74 -28 125 -117 103 -183 -14 -43 -66
-92 -117 -110 -60 -21 -179 -36 -286 -36 -74 0 -98 4 -125 20 -67 41 -62 118
10 171 23 16 46 29 52 29 5 0 37 19 69 41 33 23 80 50 106 60 52 20 145 24
188 8z"/>
<path d="M11764 10984 c-4 -10 -29 -68 -55 -127 -44 -99 -46 -107 -26 -101
117 35 213 67 219 72 3 4 -22 42 -56 85 -79 97 -74 93 -82 71z"/>
<path d="M6280 10199 c-318 -14 -611 -68 -927 -170 -343 -111 -513 -241 -474
-362 29 -88 211 -278 362 -378 275 -183 557 -271 1168 -364 532 -81 797 -86
1058 -20 355 90 606 331 641 615 26 210 -56 394 -221 498 -125 79 -288 126
-557 163 -126 16 -220 21 -500 24 -190 2 -437 -1 -550 -6z"/>
</g>
</svg>
